<?xml version="1.0" encoding="utf-8"?>
<!-- Generator: Adobe Illustrator 25.1.0, SVG Export Plug-In . SVG Version: 6.00 Build 0)  -->
<svg version="1.1" id="레이어_1" xmlns="http://www.w3.org/2000/svg" xmlns:xlink="http://www.w3.org/1999/xlink" x="0px"
	 y="0px" viewBox="0 0 80 80" style="enable-background:new 0 0 80 80;" xml:space="preserve">
<path d="M43.77,31.21c0.28-0.21,0.56-0.45,0.81-0.72c1.22-1.27,2.64-3.71,2.47-8.1c-0.14-3.49-1.98-5.47-3.61-7.22
	c-1.56-1.67-2.79-2.99-2.38-5.27c0.04-0.22-0.05-0.45-0.22-0.59c-0.11-0.09-0.25-0.14-0.39-0.14c-0.08,0-0.16,0.02-0.24,0.05
	c-3.5,1.48-7.27,6.24-7.27,13.19c0,3.15,0.73,5.77,2.11,7.55c0.36,0.47,0.76,0.87,1.2,1.21L43.77,31.21z M41.54,27.62
	c-0.05-0.33,0.02-0.65,0.21-0.92c1.4-1.96,0.87-3.66,0.84-3.73c-0.15-0.44-0.04-0.94,0.3-1.28c0.03-0.03,0.06-0.06,0.09-0.08
	c0.11-0.09,0.24-0.16,0.37-0.21c0.64-0.23,1.35,0.11,1.58,0.76c0.04,0.12,1,2.95-1.17,5.98c-0.04,0.06-0.08,0.11-0.13,0.16
	c-0.43,0.43-1.1,0.48-1.59,0.13C41.77,28.23,41.59,27.95,41.54,27.62z"/>
</svg>
