<?xml version="1.0" encoding="utf-8"?>
<!-- Generator: Adobe Illustrator 25.1.0, SVG Export Plug-In . SVG Version: 6.00 Build 0)  -->
<svg version="1.1" id="레이어_1" xmlns="http://www.w3.org/2000/svg" xmlns:xlink="http://www.w3.org/1999/xlink" x="0px"
	 y="0px" viewBox="0 0 80 80" style="enable-background:new 0 0 80 80;" xml:space="preserve">
<path d="M56.91,19.83c0,0.92-0.39,1.75-1.02,2.33l-6.34,1.15l-2.47-0.01c-1.69,1.86-0.29,4.73-0.22,9.23c0.08,5.8-7.58,7.55-6.76,1
	c0.35-2.73,3.81-7.15-0.19-9.14c-2.74-1.36-3.94,2.16-5.38,3.42c-2.56,2.26-6.23-1.61-9.2-4.59h-0.09l-5.49-0.45v-0.29
	c-0.98-0.55-1.64-1.6-1.64-2.8c0.01-1.77,1.45-3.21,3.22-3.2l32.39,0.13C55.49,16.62,56.92,18.06,56.91,19.83z"/>
</svg>
